<?xml version="1.0" encoding="UTF-8"?><svg xmlns="http://www.w3.org/2000/svg" xmlns:xlink="http://www.w3.org/1999/xlink" width="187.5" zoomAndPan="magnify" viewBox="0 0 187.5 44.999999" height="44.999999" preserveAspectRatio="xMidYMid meet" version="1.0"><defs><clipPath id="clip-0"><path d="M 0 0.0585938 L 187 0.0585938 L 187 44.9375 L 0 44.9375 Z M 0 0.0585938 " clip-rule="nonzero"/></clipPath><clipPath id="clip-1"><path d="M 10 3.679688 L 36 3.679688 L 36 28 L 10 28 Z M 10 3.679688 " clip-rule="nonzero"/></clipPath><clipPath id="clip-2"><path d="M 2.320312 10 L 18 10 L 18 37 L 2.320312 37 Z M 2.320312 10 " clip-rule="nonzero"/></clipPath><clipPath id="clip-3"><path d="M 10 31 L 22 31 L 22 40.886719 L 10 40.886719 Z M 10 31 " clip-rule="nonzero"/></clipPath><clipPath id="clip-4"><path d="M 24 31 L 36 31 L 36 40.886719 L 24 40.886719 Z M 24 31 " clip-rule="nonzero"/></clipPath><clipPath id="clip-5"><path d="M 42 16 L 185 16 L 185 44.9375 L 42 44.9375 Z M 42 16 " clip-rule="nonzero"/></clipPath></defs><g clip-path="url(#clip-0)"><path fill="rgb(100%, 100%, 100%)" d="M 0 0.0585938 L 187.5 0.0585938 L 187.5 52.558594 L 0 52.558594 Z M 0 0.0585938 " fill-opacity="1" fill-rule="nonzero"/><path fill="rgb(100%, 100%, 100%)" d="M 0 0.0585938 L 187.5 0.0585938 L 187.5 45.058594 L 0 45.058594 Z M 0 0.0585938 " fill-opacity="1" fill-rule="nonzero"/><path fill="rgb(47.44873%, 81.959534%, 71.759033%)" d="M 0 0.0585938 L 187.5 0.0585938 L 187.5 45.058594 L 0 45.058594 Z M 0 0.0585938 " fill-opacity="1" fill-rule="nonzero"/></g><g clip-path="url(#clip-1)"><path fill="rgb(100%, 100%, 100%)" d="M 23 27.917969 C 22.789062 27.917969 22.589844 27.832031 22.441406 27.683594 C 16.800781 22.023438 10.96875 16.167969 10.96875 10.199219 C 10.96875 6.648438 13.84375 3.761719 17.378906 3.761719 C 19.847656 3.761719 21.929688 4.824219 23.007812 6.480469 C 24.066406 4.730469 26.015625 3.761719 28.617188 3.761719 C 32.152344 3.761719 35.027344 6.648438 35.027344 10.199219 C 35.027344 16.164062 29.203125 22.011719 23.574219 27.667969 L 23.558594 27.683594 C 23.410156 27.832031 23.207031 27.917969 23 27.917969 Z M 17.378906 5.347656 C 14.714844 5.347656 12.550781 7.523438 12.550781 10.199219 C 12.550781 15.328125 17.765625 20.746094 23 26.003906 C 28.226562 20.746094 33.449219 15.332031 33.449219 10.199219 C 33.449219 7.523438 31.28125 5.347656 28.617188 5.347656 C 26.6875 5.347656 24.28125 5.96875 23.777344 8.933594 C 23.710938 9.328125 23.363281 9.609375 22.964844 9.59375 C 22.570312 9.578125 22.246094 9.265625 22.210938 8.871094 C 22.011719 6.558594 19.628906 5.347656 17.378906 5.347656 Z M 17.378906 5.347656 " fill-opacity="1" fill-rule="nonzero"/></g><path fill="rgb(100%, 100%, 100%)" d="M 25.710938 16.449219 L 20.214844 16.449219 C 19.671875 16.449219 19.230469 16.007812 19.230469 15.460938 C 19.230469 14.910156 19.671875 14.46875 20.214844 14.46875 L 25.710938 14.46875 C 26.257812 14.46875 26.695312 14.914062 26.695312 15.460938 C 26.695312 16.007812 26.257812 16.449219 25.710938 16.449219 Z M 25.710938 16.449219 " fill-opacity="1" fill-rule="nonzero"/><path fill="rgb(100%, 100%, 100%)" d="M 22.960938 19.207031 C 22.417969 19.207031 21.976562 18.765625 21.976562 18.21875 L 21.976562 12.699219 C 21.976562 12.152344 22.417969 11.710938 22.960938 11.710938 C 23.507812 11.710938 23.949219 12.152344 23.949219 12.699219 L 23.949219 18.21875 C 23.949219 18.765625 23.507812 19.207031 22.960938 19.207031 Z M 22.960938 19.207031 " fill-opacity="1" fill-rule="nonzero"/><g clip-path="url(#clip-2)"><path fill="rgb(100%, 100%, 100%)" d="M 12.066406 36.074219 C 11.835938 36.074219 11.609375 35.976562 11.457031 35.785156 C 11.1875 35.453125 10.835938 35.035156 10.425781 34.546875 C 9.128906 32.988281 7.351562 30.859375 5.949219 28.976562 C 5.59375 28.5 4.625 26.699219 3.800781 24.683594 C 2.722656 22.042969 2.320312 20.097656 2.601562 18.902344 L 4.21875 12.007812 C 4.378906 11.332031 4.90625 10.894531 5.566406 10.894531 C 6.902344 10.894531 8.328125 12.628906 8.398438 15.53125 C 8.398438 15.589844 8.394531 15.648438 8.382812 15.707031 L 8.363281 15.816406 C 7.933594 17.949219 7.71875 19.019531 7.867188 19.882812 C 7.90625 20.101562 7.96875 20.320312 8.0625 20.554688 C 8.386719 20.066406 8.910156 19.789062 9.515625 19.789062 C 10.488281 19.789062 11.613281 20.476562 12.851562 21.832031 C 13.394531 22.363281 14.066406 23.03125 15.152344 24.289062 C 15.414062 24.589844 15.601562 24.800781 15.757812 24.96875 C 16.316406 25.585938 16.394531 25.710938 16.539062 26.503906 C 16.578125 26.726562 16.632812 27.03125 16.730469 27.472656 L 17.832031 32.414062 C 17.90625 32.761719 17.746094 33.117188 17.433594 33.285156 L 12.441406 35.980469 C 12.324219 36.042969 12.195312 36.074219 12.066406 36.074219 Z M 5.714844 12.546875 L 4.136719 19.265625 C 3.671875 21.25 6.605469 27.214844 7.210938 28.023438 C 8.589844 29.875 10.351562 31.984375 11.636719 33.527344 C 11.863281 33.800781 12.074219 34.050781 12.261719 34.277344 L 16.160156 32.171875 L 15.191406 27.816406 C 15.085938 27.34375 15.027344 27.023438 14.984375 26.785156 C 14.953125 26.617188 14.921875 26.441406 14.902344 26.402344 C 14.875 26.355469 14.742188 26.207031 14.589844 26.035156 C 14.4375 25.871094 14.230469 25.644531 13.957031 25.324219 C 12.902344 24.105469 12.257812 23.460938 11.734375 22.953125 C 11.722656 22.945312 11.714844 22.933594 11.703125 22.917969 C 10.359375 21.445312 9.644531 21.371094 9.515625 21.371094 C 9.417969 21.371094 9.398438 21.394531 9.371094 21.445312 C 9.222656 21.707031 9.210938 22.5 9.804688 23.535156 C 9.84375 23.582031 9.886719 23.636719 9.933594 23.695312 L 10.027344 23.804688 C 10.292969 24.117188 10.84375 24.773438 11.929688 26.085938 C 11.933594 26.09375 11.941406 26.101562 11.949219 26.109375 C 12.183594 26.417969 12.226562 26.726562 12.082031 27.019531 C 11.949219 27.289062 11.675781 27.460938 11.375 27.460938 C 11 27.460938 10.84375 27.277344 10.53125 26.90625 C 10.386719 26.738281 10.191406 26.5 9.976562 26.242188 C 9.535156 25.710938 9.03125 25.097656 8.71875 24.710938 C 8.582031 24.550781 8.527344 24.480469 8.480469 24.402344 L 8.320312 24.152344 C 5.921875 20.390625 5.878906 20.148438 6.8125 15.503906 L 6.816406 15.484375 C 6.75 13.644531 6.070312 12.777344 5.714844 12.546875 Z M 5.714844 12.546875 " fill-opacity="1" fill-rule="nonzero"/></g><g clip-path="url(#clip-3)"><path fill="rgb(100%, 100%, 100%)" d="M 13.898438 40.445312 C 13.824219 40.445312 13.75 40.433594 13.671875 40.410156 C 13.472656 40.351562 13.304688 40.210938 13.207031 40.027344 L 10.976562 35.867188 C 10.878906 35.683594 10.855469 35.464844 10.917969 35.265625 C 10.976562 35.0625 11.113281 34.894531 11.300781 34.792969 L 17.804688 31.285156 C 18.1875 31.078125 18.667969 31.222656 18.871094 31.605469 L 21.101562 35.761719 C 21.199219 35.949219 21.222656 36.164062 21.160156 36.367188 C 21.101562 36.566406 20.964844 36.738281 20.78125 36.835938 L 14.277344 40.351562 C 14.160156 40.414062 14.03125 40.445312 13.898438 40.445312 Z M 12.742188 35.816406 L 14.222656 38.578125 L 19.335938 35.816406 L 17.855469 33.054688 Z M 12.742188 35.816406 " fill-opacity="1" fill-rule="nonzero"/></g><path fill="rgb(100%, 100%, 100%)" d="M 33.96875 36.4375 C 33.839844 36.4375 33.710938 36.40625 33.59375 36.34375 L 28.597656 33.644531 C 28.289062 33.476562 28.125 33.121094 28.203125 32.773438 L 29.304688 27.832031 C 29.402344 27.390625 29.457031 27.085938 29.496094 26.863281 C 29.640625 26.066406 29.71875 25.941406 30.28125 25.328125 C 30.433594 25.160156 30.625 24.949219 30.882812 24.648438 C 31.96875 23.394531 32.640625 22.722656 33.183594 22.195312 C 34.421875 20.835938 35.546875 20.148438 36.519531 20.148438 C 37.125 20.148438 37.648438 20.425781 37.96875 20.914062 C 38.0625 20.679688 38.128906 20.460938 38.167969 20.242188 C 38.316406 19.382812 38.101562 18.308594 37.671875 16.179688 L 37.652344 16.070312 C 37.640625 16.011719 37.636719 15.953125 37.636719 15.894531 C 37.707031 12.992188 39.132812 11.253906 40.464844 11.253906 C 41.125 11.253906 41.65625 11.691406 41.8125 12.367188 L 43.433594 19.265625 C 44.109375 22.132812 40.589844 28.65625 40.085938 29.335938 C 38.683594 31.222656 36.90625 33.351562 35.605469 34.90625 C 35.199219 35.394531 34.847656 35.816406 34.578125 36.148438 C 34.421875 36.335938 34.199219 36.4375 33.96875 36.4375 Z M 29.875 32.535156 L 33.773438 34.640625 C 33.960938 34.414062 34.167969 34.160156 34.394531 33.890625 C 35.683594 32.347656 37.445312 30.238281 38.820312 28.386719 C 39.445312 27.542969 42.367188 21.640625 41.894531 19.628906 L 40.316406 12.90625 C 39.964844 13.140625 39.285156 14.003906 39.21875 15.847656 L 39.222656 15.863281 C 40.152344 20.511719 40.109375 20.753906 37.710938 24.511719 L 37.550781 24.765625 C 37.5 24.84375 37.441406 24.917969 37.308594 25.074219 C 37.003906 25.453125 36.511719 26.054688 36.054688 26.605469 C 35.839844 26.863281 35.644531 27.101562 35.5 27.269531 C 35.191406 27.636719 35.035156 27.820312 34.667969 27.824219 C 34.664062 27.824219 34.660156 27.824219 34.660156 27.824219 C 34.359375 27.824219 34.085938 27.65625 33.953125 27.386719 C 33.804688 27.089844 33.851562 26.78125 34.085938 26.472656 C 34.09375 26.464844 34.097656 26.457031 34.105469 26.449219 C 35.132812 25.203125 35.671875 24.5625 35.960938 24.21875 L 36.089844 24.0625 C 36.140625 24 36.1875 23.945312 36.226562 23.894531 C 36.820312 22.863281 36.8125 22.070312 36.664062 21.808594 C 36.632812 21.757812 36.617188 21.734375 36.519531 21.734375 C 36.390625 21.734375 35.671875 21.808594 34.332031 23.28125 C 34.320312 23.292969 34.308594 23.304688 34.296875 23.316406 C 33.777344 23.824219 33.132812 24.46875 32.074219 25.6875 C 31.800781 26.003906 31.597656 26.230469 31.445312 26.394531 C 31.296875 26.558594 31.15625 26.710938 31.128906 26.761719 C 31.109375 26.796875 31.082031 26.972656 31.050781 27.140625 C 31.007812 27.378906 30.949219 27.703125 30.84375 28.179688 Z M 29.875 32.535156 " fill-opacity="1" fill-rule="nonzero"/><g clip-path="url(#clip-4)"><path fill="rgb(100%, 100%, 100%)" d="M 32.132812 40.804688 C 32.003906 40.804688 31.875 40.773438 31.757812 40.710938 L 25.253906 37.199219 C 25.070312 37.097656 24.933594 36.929688 24.875 36.726562 C 24.8125 36.527344 24.835938 36.308594 24.933594 36.125 L 27.164062 31.96875 C 27.367188 31.582031 27.847656 31.4375 28.230469 31.644531 L 34.734375 35.15625 C 35.117188 35.363281 35.261719 35.84375 35.054688 36.230469 L 32.828125 40.386719 C 32.730469 40.570312 32.5625 40.710938 32.363281 40.769531 C 32.285156 40.792969 32.210938 40.804688 32.132812 40.804688 Z M 26.699219 36.179688 L 31.8125 38.9375 L 33.289062 36.179688 L 28.179688 33.417969 Z M 26.699219 36.179688 " fill-opacity="1" fill-rule="nonzero"/></g><g clip-path="url(#clip-5)"><path stroke-linecap="butt" transform="matrix(0.778053, 0, 0, 0.778053, 23.085532, 17.516251)" fill="none" stroke-linejoin="miter" d="M 38.161688 4.808879 C 39.617646 4.808879 40.897885 5.115132 42.007426 5.722618 C 43.111946 6.330104 43.970459 7.193638 44.577945 8.303178 C 45.185431 9.407698 45.491684 10.687937 45.491684 12.143896 L 45.491684 19.117433 C 45.491684 20.713967 45.105102 22.094617 44.336959 23.254363 C 43.573836 24.409089 42.50948 25.232458 41.148912 25.729492 C 41.053522 25.769656 41.003317 25.839944 41.003317 25.940355 L 41.003317 28.154416 C 41.003317 28.294991 40.963152 28.405443 40.877803 28.485772 C 40.802495 28.56108 40.697063 28.601244 40.556488 28.601244 L 35.822114 28.601244 C 35.686559 28.601244 35.576107 28.56108 35.495778 28.485772 C 35.415449 28.405443 35.380306 28.294991 35.380306 28.154416 L 35.380306 25.940355 C 35.380306 25.839944 35.32508 25.769656 35.224669 25.729492 C 33.869121 25.232458 32.804766 24.409089 32.021561 23.254363 C 31.243376 22.094617 30.856794 20.713967 30.856794 19.117433 L 30.856794 12.143896 C 30.856794 10.687937 31.158027 9.407698 31.770533 8.303178 C 32.378019 7.193638 33.236533 6.330104 34.341053 5.722618 C 35.450593 5.115132 36.725812 4.808879 38.161688 4.808879 Z M 36.479805 19.328296 C 36.479805 19.945823 36.635442 20.452899 36.941695 20.839481 C 37.252969 21.226063 37.659633 21.416843 38.161688 21.416843 C 38.678804 21.416843 39.090489 21.231083 39.396742 20.854542 C 39.708016 20.478001 39.863653 19.965906 39.863653 19.328296 L 39.863653 11.692047 C 39.863653 11.074519 39.708016 10.572465 39.396742 10.195924 C 39.090489 9.814362 38.678804 9.623582 38.161688 9.623582 C 37.659633 9.623582 37.252969 9.814362 36.941695 10.195924 C 36.635442 10.572465 36.479805 11.074519 36.479805 11.692047 Z M 54.463399 26.241588 C 53.007441 26.241588 51.727202 25.950396 50.622682 25.373033 C 49.518162 24.79065 48.659649 23.972301 48.047142 22.917986 C 47.439656 21.858651 47.138423 20.633638 47.138423 19.232906 L 47.138423 5.496693 C 47.138423 5.361139 47.173567 5.250687 47.253896 5.175378 C 47.334225 5.090029 47.444677 5.049865 47.580231 5.049865 L 52.309585 5.049865 C 52.450161 5.049865 52.560613 5.090029 52.635921 5.175378 C 52.72127 5.250687 52.761434 5.361139 52.761434 5.496693 L 52.761434 19.504015 C 52.761434 20.081378 52.917071 20.548289 53.223325 20.899727 C 53.534598 21.246145 53.946283 21.416843 54.463399 21.416843 C 54.965454 21.416843 55.377139 21.246145 55.693433 20.899727 C 56.014748 20.548289 56.175405 20.081378 56.175405 19.504015 L 56.175405 5.496693 C 56.175405 5.361139 56.21557 5.250687 56.290878 5.175378 C 56.376227 5.090029 56.486679 5.049865 56.622234 5.049865 L 61.346567 5.049865 C 61.487143 5.049865 61.597595 5.090029 61.677923 5.175378 C 61.758252 5.250687 61.803437 5.361139 61.803437 5.496693 L 61.803437 19.232906 C 61.803437 20.633638 61.497184 21.858651 60.889698 22.917986 C 60.277191 23.972301 59.418678 24.79065 58.309137 25.373033 C 57.204617 25.950396 55.919358 26.241588 54.463399 26.241588 Z M 75.384013 26.000601 C 75.102862 26.000601 74.932164 25.870067 74.876938 25.614019 L 74.369863 23.304568 C 74.324678 23.204158 74.264431 23.158973 74.189123 23.158973 L 69.700755 23.158973 C 69.620427 23.158973 69.555159 23.204158 69.520016 23.304568 L 69.038043 25.614019 C 68.977797 25.870067 68.807098 26.000601 68.530968 26.000601 L 63.620875 26.000601 C 63.460217 26.000601 63.344745 25.955417 63.279477 25.870067 C 63.20919 25.774677 63.194128 25.649163 63.234293 25.488506 L 68.561091 5.436447 C 68.621338 5.180399 68.776975 5.049865 69.038043 5.049865 L 74.962287 5.049865 C 75.223355 5.049865 75.384013 5.180399 75.444259 5.436447 L 80.740935 25.488506 C 80.761017 25.533691 80.771058 25.583896 80.771058 25.644143 C 80.771058 25.880108 80.630483 26.000601 80.354353 26.000601 Z M 70.473919 18.700728 C 70.473919 18.796119 70.534166 18.846324 70.659679 18.846324 L 73.200076 18.846324 C 73.33563 18.846324 73.395877 18.776036 73.375795 18.635461 L 72.030288 12.409985 C 72.010206 12.329656 71.970042 12.289491 71.909795 12.289491 C 71.849549 12.289491 71.809384 12.329656 71.789302 12.409985 L 70.473919 18.635461 Z M 92.499053 5.496693 C 92.499053 5.361139 92.539217 5.250687 92.614525 5.175378 C 92.699875 5.090029 92.810327 5.049865 92.945881 5.049865 L 97.645112 5.049865 C 97.785687 5.049865 97.896139 5.090029 97.971448 5.175378 C 98.056797 5.250687 98.096961 5.361139 98.096961 5.496693 L 98.096961 25.553773 C 98.096961 25.689328 98.056797 25.79978 97.971448 25.885129 C 97.896139 25.960437 97.785687 26.000601 97.645112 26.000601 L 92.709916 26.000601 C 92.448847 26.000601 92.278149 25.890149 92.202841 25.669245 L 88.040808 15.914325 C 88.020726 15.833997 87.980562 15.793832 87.920315 15.793832 C 87.860069 15.793832 87.829945 15.844038 87.829945 15.944449 L 87.890192 25.553773 C 87.890192 25.689328 87.850028 25.79978 87.764678 25.885129 C 87.68937 25.960437 87.578918 26.000601 87.443363 26.000601 L 82.744133 26.000601 C 82.603557 26.000601 82.493105 25.960437 82.407756 25.885129 C 82.332448 25.79978 82.292284 25.689328 82.292284 25.553773 L 82.292284 5.496693 C 82.292284 5.361139 82.332448 5.250687 82.407756 5.175378 C 82.493105 5.090029 82.603557 5.049865 82.744133 5.049865 L 87.649206 5.049865 C 87.910274 5.049865 88.080973 5.160317 88.161301 5.381221 L 92.318313 15.136141 C 92.338395 15.21647 92.373539 15.251613 92.433786 15.241572 C 92.499053 15.231531 92.529176 15.171285 92.529176 15.075894 Z M 109.644216 26.000601 C 109.388168 26.000601 109.21747 25.880108 109.13212 25.644143 L 106.591724 18.103283 C 106.571642 17.997852 106.501354 17.947646 106.385882 17.947646 L 105.843663 17.947646 C 105.72317 17.947646 105.662923 18.007893 105.662923 18.128386 L 105.662923 25.553773 C 105.662923 25.689328 105.622759 25.79978 105.53741 25.885129 C 105.462102 25.960437 105.35165 26.000601 105.216095 26.000601 L 100.486741 26.000601 C 100.346166 26.000601 100.235714 25.960437 100.150364 25.885129 C 100.075056 25.79978 100.034892 25.689328 100.034892 25.553773 L 100.034892 5.496693 C 100.034892 5.361139 100.075056 5.250687 100.150364 5.175378 C 100.235714 5.090029 100.346166 5.049865 100.486741 5.049865 L 108.38908 5.049865 C 109.664298 5.049865 110.793921 5.331015 111.772927 5.888296 C 112.751934 6.445576 113.505016 7.228781 114.042214 8.237911 C 114.584433 9.247041 114.855542 10.406787 114.855542 11.72217 C 114.855542 12.942162 114.599495 14.011539 114.087399 14.94536 C 113.580324 15.86914 112.867406 16.592099 111.948646 17.109215 C 111.868318 17.169462 111.838194 17.249791 111.858277 17.350201 L 114.940892 25.488506 C 114.960974 25.553773 114.971015 25.624061 114.971015 25.699369 C 114.971015 25.900191 114.840481 26.000601 114.584433 26.000601 Z M 105.843663 9.864568 C 105.72317 9.864568 105.662923 9.924814 105.662923 10.050328 L 105.662923 13.489402 C 105.662923 13.604874 105.72317 13.665121 105.843663 13.665121 L 107.430155 13.665121 C 107.967354 13.665121 108.404141 13.499443 108.745538 13.163066 C 109.086935 12.821669 109.257634 12.359779 109.257634 11.782416 C 109.257634 11.184971 109.091956 10.718061 108.7606 10.376664 C 108.434265 10.035266 107.992457 9.864568 107.430155 9.864568 Z M 128.315625 26.000601 C 128.034475 26.000601 127.863776 25.870067 127.80855 25.614019 L 127.301475 23.304568 C 127.25629 23.204158 127.196043 23.158973 127.120735 23.158973 L 122.632367 23.158973 C 122.552039 23.158973 122.486772 23.204158 122.451628 23.304568 L 121.969655 25.614019 C 121.909409 25.870067 121.73871 26.000601 121.46258 26.000601 L 116.552487 26.000601 C 116.391829 26.000601 116.276357 25.955417 116.21109 25.870067 C 116.140802 25.774677 116.12574 25.649163 116.165905 25.488506 L 121.492704 5.436447 C 121.55295 5.180399 121.708587 5.049865 121.969655 5.049865 L 127.893899 5.049865 C 128.154968 5.049865 128.315625 5.180399 128.375872 5.436447 L 133.672547 25.488506 C 133.692629 25.533691 133.702671 25.583896 133.702671 25.644143 C 133.702671 25.880108 133.562095 26.000601 133.285965 26.000601 Z M 123.405532 18.700728 C 123.405532 18.796119 123.465778 18.846324 123.591292 18.846324 L 126.131688 18.846324 C 126.267243 18.846324 126.327489 18.776036 126.307407 18.635461 L 124.961901 12.409985 C 124.941818 12.329656 124.901654 12.289491 124.841408 12.289491 C 124.781161 12.289491 124.740997 12.329656 124.720914 12.409985 L 123.405532 18.635461 Z M 145.430665 5.496693 C 145.430665 5.361139 145.470829 5.250687 145.546138 5.175378 C 145.631487 5.090029 145.741939 5.049865 145.877494 5.049865 L 150.576724 5.049865 C 150.7173 5.049865 150.827752 5.090029 150.90306 5.175378 C 150.988409 5.250687 151.028573 5.361139 151.028573 5.496693 L 151.028573 25.553773 C 151.028573 25.689328 150.988409 25.79978 150.90306 25.885129 C 150.827752 25.960437 150.7173 26.000601 150.576724 26.000601 L 145.641528 26.000601 C 145.38046 26.000601 145.209761 25.890149 145.134453 25.669245 L 140.972421 15.914325 C 140.952338 15.833997 140.912174 15.793832 140.851927 15.793832 C 140.791681 15.793832 140.761558 15.844038 140.761558 15.944449 L 140.821804 25.553773 C 140.821804 25.689328 140.78164 25.79978 140.696291 25.885129 C 140.620982 25.960437 140.51053 26.000601 140.374976 26.000601 L 135.675745 26.000601 C 135.53517 26.000601 135.424718 25.960437 135.339368 25.885129 C 135.26406 25.79978 135.223896 25.689328 135.223896 25.553773 L 135.223896 5.496693 C 135.223896 5.361139 135.26406 5.250687 135.339368 5.175378 C 135.424718 5.090029 135.53517 5.049865 135.675745 5.049865 L 140.580818 5.049865 C 140.841886 5.049865 141.012585 5.160317 141.092914 5.381221 L 145.249925 15.136141 C 145.270008 15.21647 145.305151 15.251613 145.365398 15.241572 C 145.430665 15.231531 145.460788 15.171285 145.460788 15.075894 Z M 167.360408 5.049865 C 167.506004 5.049865 167.611435 5.090029 167.691764 5.175378 C 167.772093 5.250687 167.817278 5.361139 167.817278 5.496693 L 167.817278 9.417739 C 167.817278 9.558315 167.772093 9.663746 167.691764 9.749095 C 167.611435 9.824404 167.506004 9.864568 167.360408 9.864568 L 163.118047 9.864568 C 162.992534 9.864568 162.932287 9.924814 162.932287 10.050328 L 162.932287 25.553773 C 162.932287 25.689328 162.892123 25.79978 162.811794 25.885129 C 162.731465 25.960437 162.626034 26.000601 162.490479 26.000601 L 157.761125 26.000601 C 157.62055 26.000601 157.505077 25.960437 157.424748 25.885129 C 157.34442 25.79978 157.309276 25.689328 157.309276 25.553773 L 157.309276 10.050328 C 157.309276 9.924814 157.249029 9.864568 157.133557 9.864568 L 152.966504 9.864568 C 152.825929 9.864568 152.715477 9.824404 152.640169 9.749095 C 152.55984 9.663746 152.519675 9.558315 152.519675 9.417739 L 152.519675 5.496693 C 152.519675 5.361139 152.55984 5.250687 152.640169 5.175378 C 152.715477 5.090029 152.825929 5.049865 152.966504 5.049865 Z M 178.315239 5.496693 C 178.315239 5.361139 178.355403 5.250687 178.430711 5.175378 C 178.516061 5.090029 178.626513 5.049865 178.762067 5.049865 L 183.496442 5.049865 C 183.631996 5.049865 183.737428 5.090029 183.817757 5.175378 C 183.898085 5.250687 183.94327 5.361139 183.94327 5.496693 L 183.94327 25.553773 C 183.94327 25.689328 183.898085 25.79978 183.817757 25.885129 C 183.737428 25.960437 183.631996 26.000601 183.496442 26.000601 L 178.762067 26.000601 C 178.626513 26.000601 178.516061 25.960437 178.430711 25.885129 C 178.355403 25.79978 178.315239 25.689328 178.315239 25.553773 L 178.315239 18.032996 C 178.315239 17.917523 178.254992 17.862297 178.134499 17.862297 L 175.142254 17.862297 C 175.021761 17.862297 174.961514 17.917523 174.961514 18.032996 L 174.961514 25.553773 C 174.961514 25.689328 174.92135 25.79978 174.836001 25.885129 C 174.760692 25.960437 174.65024 26.000601 174.514686 26.000601 L 169.785332 26.000601 C 169.644756 26.000601 169.534304 25.960437 169.448955 25.885129 C 169.373647 25.79978 169.333483 25.689328 169.333483 25.553773 L 169.333483 5.496693 C 169.333483 5.361139 169.373647 5.250687 169.448955 5.175378 C 169.534304 5.090029 169.644756 5.049865 169.785332 5.049865 L 174.514686 5.049865 C 174.65024 5.049865 174.760692 5.090029 174.836001 5.175378 C 174.92135 5.250687 174.961514 5.361139 174.961514 5.496693 L 174.961514 12.861834 C 174.961514 12.977306 175.021761 13.037553 175.142254 13.037553 L 178.134499 13.037553 C 178.254992 13.037553 178.315239 12.977306 178.315239 12.861834 Z M 191.057383 25.940355 C 190.916808 25.940355 190.806356 25.900191 190.731048 25.824882 C 190.650719 25.739533 190.615575 25.629081 190.615575 25.488506 L 190.615575 18.760975 C 190.615575 18.635461 190.605534 18.555132 190.585452 18.519989 L 185.434372 5.55694 C 185.41429 5.496693 185.404249 5.426406 185.404249 5.351097 C 185.404249 5.150276 185.534783 5.049865 185.790831 5.049865 L 190.846521 5.049865 C 190.967014 5.049865 191.077466 5.085009 191.177877 5.150276 C 191.278287 5.220563 191.338534 5.315954 191.358616 5.436447 L 193.331691 11.963156 C 193.376875 12.038464 193.42206 12.078629 193.472266 12.078629 C 193.517451 12.078629 193.552595 12.038464 193.572677 11.963156 L 195.515628 5.436447 C 195.540731 5.315954 195.600977 5.220563 195.701388 5.150276 C 195.801799 5.085009 195.912251 5.049865 196.027724 5.049865 L 201.113536 5.049865 C 201.274194 5.049865 201.389666 5.09505 201.454933 5.19044 C 201.530242 5.275789 201.535262 5.396282 201.480036 5.55694 L 196.26871 18.519989 C 196.248628 18.555132 196.238586 18.635461 196.238586 18.760975 L 196.238586 25.488506 C 196.238586 25.629081 196.198422 25.739533 196.118093 25.824882 C 196.037765 25.900191 195.927313 25.940355 195.786737 25.940355 Z M 191.057383 25.940355 " stroke="rgb(100%, 100%, 100%)" stroke-width="1.122559" stroke-opacity="1" stroke-miterlimit="4"/></g></svg>